<svg width="765" height="1080" viewBox="0 0 765 1080" fill="none" xmlns="http://www.w3.org/2000/svg">
<ellipse cx="209.052" cy="290.394" rx="105.77" ry="270.964" transform="rotate(-24.6239 209.052 290.394)" fill="#D9D9D9"/>
<mask id="mask0_118_1384" style="mask-type:alpha" maskUnits="userSpaceOnUse" x="60" y="40" width="298" height="501">
<ellipse cx="209.052" cy="290.394" rx="105.77" ry="270.964" transform="rotate(-24.6239 209.052 290.394)" fill="#D9D9D9"/>
</mask>
<g mask="url(#mask0_118_1384)">
<path d="M85.3325 36C65.1658 78.3333 60.693 203.908 117 312.5C173 420.5 212.167 459.667 245 467L184.5 506.5L13.5 115.5L102.5 17L85.3325 36Z" fill="white" fill-opacity="0.6"/>
<path d="M318.5 246C332 303 350.9 428.2 318.5 473C286.1 517.8 346.667 461.5 380.5 425L318.5 246Z" fill="#595EB2" fill-opacity="0.2"/>
</g>
<ellipse cx="209.59" cy="289.578" rx="64.2607" ry="172.489" transform="rotate(-24.6239 209.59 289.578)" fill="#F7C2C2"/>
<mask id="mask1_118_1384" style="mask-type:alpha" maskUnits="userSpaceOnUse" x="135" y="448" width="469" height="510">
<rect x="135" y="448" width="469" height="510" rx="204" fill="#D9D9D9"/>
</mask>
<g mask="url(#mask1_118_1384)">
<rect x="135" y="448" width="469" height="510" rx="204" fill="#D9D9D9"/>
<path d="M416 957.5C586.8 895.9 598.5 670.5 583 565.5H592L644 641L583 939.5C456.167 971.167 245.2 1019.1 416 957.5Z" fill="#595EB2" fill-opacity="0.2"/>
</g>
<mask id="mask2_118_1384" style="mask-type:alpha" maskUnits="userSpaceOnUse" x="135" y="448" width="469" height="510">
<mask id="mask3_118_1384" style="mask-type:alpha" maskUnits="userSpaceOnUse" x="135" y="448" width="469" height="510">
<rect x="135" y="448" width="469" height="510" rx="204" fill="#D9D9D9"/>
</mask>
<g mask="url(#mask3_118_1384)">
<rect x="135" y="448" width="469" height="510" rx="204" fill="#D9D9D9"/>
<path d="M416 957.5C586.8 895.9 598.5 670.5 583 565.5H592L644 641L583 939.5C456.167 971.167 245.2 1019.1 416 957.5Z" fill="#595EB2" fill-opacity="0.2"/>
</g>
</mask>
<g mask="url(#mask2_118_1384)">
<path d="M288.5 453.5C211 509 123.5 563 150 831.5L115 792V548L203.5 474L288.5 453.5Z" fill="white" fill-opacity="0.6"/>
</g>
<g filter="url(#filter0_i_118_1384)">
<ellipse cx="470.5" cy="670" rx="52.5" ry="57" fill="#FF0D0D"/>
</g>
<ellipse cx="453.5" cy="660" rx="26.5" ry="29" fill="#FAFAFA"/>
<circle cx="495" cy="700" r="10" fill="#FAFAFA"/>
<g filter="url(#filter1_i_118_1384)">
<ellipse cx="276.5" cy="673" rx="52.5" ry="57" fill="#FF0D0D"/>
</g>
<ellipse cx="259.5" cy="663" rx="26.5" ry="29" fill="#FAFAFA"/>
<circle cx="301" cy="703" r="10" fill="#FAFAFA"/>
<mask id="mask4_118_1384" style="mask-type:alpha" maskUnits="userSpaceOnUse" x="367" y="146" width="290" height="451">
<ellipse cx="95" cy="250.077" rx="95" ry="250.077" transform="matrix(-0.881537 -0.472115 -0.472115 0.881537 713.623 196.381)" fill="#D9D9D9"/>
<ellipse cx="548.079" cy="309.395" rx="64.2607" ry="172.489" transform="rotate(-151.83 548.079 309.395)" fill="#F7C2C2"/>
</mask>
<g mask="url(#mask4_118_1384)">
<ellipse cx="95" cy="250.077" rx="95" ry="250.077" transform="matrix(-0.881537 -0.472115 -0.472115 0.881537 713.623 196.381)" fill="#D9D9D9"/>
<ellipse cx="548.079" cy="309.395" rx="64.2607" ry="172.489" transform="rotate(-151.83 548.079 309.395)" fill="#F7C2C2"/>
<ellipse cx="95" cy="156.296" rx="95" ry="156.296" transform="matrix(-0.96866 0.248389 0.248389 0.96866 669.045 152)" fill="#595EB3" fill-opacity="0.2"/>
</g>
<ellipse cx="95" cy="156.296" rx="95" ry="156.296" transform="matrix(-0.96866 0.248389 0.248389 0.96866 686.59 126.522)" fill="#D9D9D9"/>
<rect x="371.512" y="804" width="8.97561" height="36.55" fill="#595EB2" fill-opacity="0.2"/>
<rect x="373.756" y="806.244" width="4.4878" height="32.0622" stroke="#595EB2" stroke-opacity="0.2" stroke-width="4.4878"/>
<mask id="path-27-inside-1_118_1384" fill="white">
<path d="M375.235 834.6C376.897 834.6 378.27 835.957 377.983 837.594C377.228 841.897 374.859 845.912 371.179 849.025C366.655 852.851 360.519 855 354.122 855C347.724 855 341.589 852.851 337.065 849.025C333.384 845.912 331.016 841.897 330.261 837.594C329.974 835.957 331.347 834.6 333.009 834.6C334.671 834.6 335.985 835.965 336.365 837.583C337.058 840.532 338.769 843.268 341.321 845.426C344.716 848.297 349.321 849.91 354.122 849.91C358.923 849.91 363.528 848.297 366.923 845.426C369.474 843.268 371.186 840.532 371.878 837.583C372.258 835.965 373.573 834.6 375.235 834.6Z"/>
</mask>
<path d="M375.235 834.6C376.897 834.6 378.27 835.957 377.983 837.594C377.228 841.897 374.859 845.912 371.179 849.025C366.655 852.851 360.519 855 354.122 855C347.724 855 341.589 852.851 337.065 849.025C333.384 845.912 331.016 841.897 330.261 837.594C329.974 835.957 331.347 834.6 333.009 834.6C334.671 834.6 335.985 835.965 336.365 837.583C337.058 840.532 338.769 843.268 341.321 845.426C344.716 848.297 349.321 849.91 354.122 849.91C358.923 849.91 363.528 848.297 366.923 845.426C369.474 843.268 371.186 840.532 371.878 837.583C372.258 835.965 373.573 834.6 375.235 834.6Z" fill="#595EB2" fill-opacity="0.2" stroke="#595EB2" stroke-opacity="0.2" stroke-width="16" mask="url(#path-27-inside-1_118_1384)"/>
<mask id="path-28-inside-2_118_1384" fill="white">
<path d="M418.991 834.6C420.653 834.6 422.026 835.957 421.739 837.594C420.984 841.897 418.616 845.912 414.935 849.025C410.411 852.851 404.276 855 397.878 855C391.481 855 385.345 852.851 380.821 849.025C377.141 845.912 374.772 841.897 374.017 837.594C373.73 835.957 375.103 834.6 376.765 834.6C378.427 834.6 379.742 835.965 380.122 837.583C380.814 840.532 382.526 843.268 385.077 845.426C388.472 848.297 393.077 849.91 397.878 849.91C402.679 849.91 407.284 848.297 410.679 845.426C413.231 843.268 414.942 840.532 415.635 837.583C416.015 835.965 417.329 834.6 418.991 834.6Z"/>
</mask>
<path d="M418.991 834.6C420.653 834.6 422.026 835.957 421.739 837.594C420.984 841.897 418.616 845.912 414.935 849.025C410.411 852.851 404.276 855 397.878 855C391.481 855 385.345 852.851 380.821 849.025C377.141 845.912 374.772 841.897 374.017 837.594C373.73 835.957 375.103 834.6 376.765 834.6C378.427 834.6 379.742 835.965 380.122 837.583C380.814 840.532 382.526 843.268 385.077 845.426C388.472 848.297 393.077 849.91 397.878 849.91C402.679 849.91 407.284 848.297 410.679 845.426C413.231 843.268 414.942 840.532 415.635 837.583C416.015 835.965 417.329 834.6 418.991 834.6Z" fill="#595EB2" fill-opacity="0.2" stroke="#595EB2" stroke-opacity="0.2" stroke-width="16" mask="url(#path-28-inside-2_118_1384)"/>
<path d="M384.374 801.318C380.467 807.287 371.745 807.361 367.736 801.46L345.9 769.315C341.411 762.707 346.099 753.764 354.086 753.696L397.209 753.329C405.197 753.261 410.036 762.123 405.661 768.806L384.374 801.318Z" fill="#595EB2" fill-opacity="0.2"/>
<path d="M381.027 799.128C378.756 802.597 373.774 802.747 371.279 799.534L371.045 799.212L349.209 767.067C346.516 763.103 349.328 757.737 354.12 757.696L397.244 757.329C401.961 757.289 404.848 762.44 402.434 766.426L402.314 766.615L381.027 799.128Z" stroke="#595EB2" stroke-opacity="0.2" stroke-width="8"/>
<rect x="369.512" y="801" width="8.97561" height="36.55" fill="#362727"/>
<path d="M373.235 831.6C374.897 831.6 376.27 832.957 375.983 834.594C375.228 838.897 372.86 842.912 369.179 846.025C364.655 849.851 358.52 852 352.122 852C345.725 852 339.589 849.851 335.065 846.025C331.385 842.912 329.016 838.897 328.261 834.594C327.974 832.957 329.347 831.6 331.009 831.6C332.671 831.6 333.986 832.965 334.366 834.583C335.058 837.532 336.77 840.268 339.321 842.426C342.716 845.297 347.321 846.91 352.122 846.91C356.923 846.91 361.528 845.297 364.923 842.426C367.475 840.268 369.186 837.532 369.879 834.583C370.259 832.965 371.573 831.6 373.235 831.6Z" fill="#362727"/>
<path d="M416.991 831.6C418.653 831.6 420.026 832.957 419.739 834.594C418.984 838.897 416.616 842.912 412.935 846.025C408.411 849.851 402.276 852 395.878 852C389.481 852 383.345 849.851 378.821 846.025C375.141 842.912 372.772 838.897 372.017 834.594C371.73 832.957 373.104 831.6 374.766 831.6C376.428 831.6 377.742 832.965 378.122 834.583C378.814 837.532 380.526 840.268 383.077 842.426C386.472 845.297 391.077 846.91 395.878 846.91C400.679 846.91 405.284 845.297 408.679 842.426C411.231 840.268 412.942 837.532 413.635 834.583C414.015 832.965 415.329 831.6 416.991 831.6Z" fill="#362727"/>
<mask id="mask5_118_1384" style="mask-type:alpha" maskUnits="userSpaceOnUse" x="342" y="750" width="64" height="53">
<path d="M382.374 798.318C378.467 804.287 369.745 804.361 365.736 798.46L343.9 766.315C339.411 759.707 344.099 750.764 352.086 750.696L395.209 750.329C403.197 750.261 408.036 759.123 403.661 765.806L382.374 798.318Z" fill="#362727"/>
</mask>
<g mask="url(#mask5_118_1384)">
<path d="M382.374 798.318C378.467 804.287 369.745 804.361 365.736 798.46L343.9 766.315C339.411 759.707 344.099 750.764 352.086 750.696L395.209 750.329C403.197 750.261 408.036 759.123 403.661 765.806L382.374 798.318Z" fill="#362727"/>
<path d="M367.5 747.5C361.667 748 350.3 750.9 351.5 758.5C352.7 766.1 365.167 785.5 372.5 795.5C376.5 800.955 389.2 806 394 798C398.8 790 384.333 795.5 380.5 802H369.5L361.5 800L336 759.5L351 744L367.052 746.432C367.41 746.486 367.5 747.167 367.5 747.5Z" fill="#F97D7D" fill-opacity="0.2"/>
</g>
<rect x="104.863" y="746.948" width="77" height="18" rx="9" transform="rotate(12.3918 104.863 746.948)" fill="#958888"/>
<rect width="77" height="18" rx="9" transform="matrix(-0.976703 0.214596 0.214596 0.976703 642.272 745)" fill="#958888"/>
<rect x="103.034" y="789.11" width="77" height="18" rx="9" transform="rotate(-0.82612 103.034 789.11)" fill="#958888"/>
<rect width="77" height="18" rx="9" transform="matrix(-0.999896 -0.014418 -0.014418 0.999896 644.101 787.162)" fill="#958888"/>
<rect x="105.034" y="834.685" width="77" height="18" rx="9" transform="rotate(-14.0441 105.034 834.685)" fill="#958888"/>
<rect width="77" height="18" rx="9" transform="matrix(-0.970109 -0.242668 -0.242668 0.970109 642.101 832.738)" fill="#958888"/>
<mask id="mask6_118_1384" style="mask-type:alpha" maskUnits="userSpaceOnUse" x="403" y="920" width="144" height="138">
<ellipse cx="71.0587" cy="49.983" rx="71.0587" ry="49.983" transform="matrix(-0.982034 0.188704 0.188704 0.982034 536.66 909)" fill="#FFF79D"/>
<ellipse cx="66.142" cy="49.1139" rx="66.142" ry="49.1139" transform="matrix(-0.814797 -0.579746 -0.579746 0.814797 547.085 999.972)" fill="#FFF79D"/>
</mask>
<g mask="url(#mask6_118_1384)">
<ellipse cx="71.0587" cy="49.983" rx="71.0587" ry="49.983" transform="matrix(-0.982034 0.188704 0.188704 0.982034 536.66 909)" fill="#9DFFC3"/>
<ellipse cx="66.142" cy="49.1139" rx="66.142" ry="49.1139" transform="matrix(-0.814797 -0.579746 -0.579746 0.814797 547.085 999.972)" fill="#9DFFC3"/>
<path d="M426.297 994.064C444.841 1021.08 490.558 1064.37 525.068 1021.48C559.577 978.583 528.427 1042.85 508.539 1080.34L409.364 1037.6L426.297 994.064Z" fill="#5CE6BA"/>
<mask id="mask7_118_1384" style="mask-type:alpha" maskUnits="userSpaceOnUse" x="403" y="920" width="144" height="138">
<mask id="mask8_118_1384" style="mask-type:alpha" maskUnits="userSpaceOnUse" x="403" y="920" width="144" height="138">
<ellipse cx="71.0587" cy="49.983" rx="71.0587" ry="49.983" transform="matrix(-0.982034 0.188704 0.188704 0.982034 536.66 909)" fill="#FFF79D"/>
<ellipse cx="66.142" cy="49.1139" rx="66.142" ry="49.1139" transform="matrix(-0.814797 -0.579746 -0.579746 0.814797 547.085 999.972)" fill="#FFF79D"/>
</mask>
<g mask="url(#mask8_118_1384)">
<ellipse cx="71.0587" cy="49.983" rx="71.0587" ry="49.983" transform="matrix(-0.982034 0.188704 0.188704 0.982034 536.66 909)" fill="#FFF79D"/>
<ellipse cx="66.142" cy="49.1139" rx="66.142" ry="49.1139" transform="matrix(-0.814797 -0.579746 -0.579746 0.814797 547.085 999.972)" fill="#FFF79D"/>
<path d="M426.297 994.064C444.841 1021.08 490.558 1064.37 525.068 1021.48C559.577 978.583 528.427 1042.85 508.539 1080.34L409.364 1037.6L426.297 994.064Z" fill="#F4E975"/>
</g>
</mask>
<g mask="url(#mask7_118_1384)">
<path d="M526.68 1010.19C524.069 1005.1 523.455 996.08 508.707 984.682C486.923 967.845 548.992 972 546.031 981.567C540.79 998.499 534.946 1006.33 526.68 1010.19Z" fill="#5CE6BA"/>
</g>
</g>
<mask id="mask9_118_1384" style="mask-type:alpha" maskUnits="userSpaceOnUse" x="217" y="920" width="144" height="138">
<ellipse cx="288.214" cy="971.494" rx="71.0587" ry="49.983" transform="rotate(10.8772 288.214 971.494)" fill="#FFF79D"/>
<ellipse cx="299.804" cy="1001.64" rx="66.142" ry="49.1139" transform="rotate(-35.4327 299.804 1001.64)" fill="#FFF79D"/>
</mask>
<g mask="url(#mask9_118_1384)">
<ellipse cx="288.214" cy="971.494" rx="71.0587" ry="49.983" transform="rotate(10.8772 288.214 971.494)" fill="#9DFFC3"/>
<ellipse cx="299.804" cy="1001.64" rx="66.142" ry="49.1139" transform="rotate(-35.4327 299.804 1001.64)" fill="#9DFFC3"/>
<path d="M338.227 994.064C319.682 1021.08 273.965 1064.37 239.456 1021.48C204.947 978.583 236.096 1042.85 255.985 1080.34L355.159 1037.6L338.227 994.064Z" fill="#5CE6BA"/>
<mask id="mask10_118_1384" style="mask-type:alpha" maskUnits="userSpaceOnUse" x="217" y="920" width="144" height="138">
<mask id="mask11_118_1384" style="mask-type:alpha" maskUnits="userSpaceOnUse" x="217" y="920" width="144" height="138">
<ellipse cx="288.214" cy="971.494" rx="71.0587" ry="49.983" transform="rotate(10.8772 288.214 971.494)" fill="#FFF79D"/>
<ellipse cx="299.804" cy="1001.64" rx="66.142" ry="49.1139" transform="rotate(-35.4327 299.804 1001.64)" fill="#FFF79D"/>
</mask>
<g mask="url(#mask11_118_1384)">
<ellipse cx="288.214" cy="971.494" rx="71.0587" ry="49.983" transform="rotate(10.8772 288.214 971.494)" fill="#FFF79D"/>
<ellipse cx="299.804" cy="1001.64" rx="66.142" ry="49.1139" transform="rotate(-35.4327 299.804 1001.64)" fill="#FFF79D"/>
<path d="M338.227 994.064C319.682 1021.08 273.965 1064.37 239.456 1021.48C204.947 978.583 236.096 1042.85 255.985 1080.34L355.159 1037.6L338.227 994.064Z" fill="#F4E975"/>
</g>
</mask>
<g mask="url(#mask10_118_1384)">
<path d="M237.844 1010.19C240.454 1005.1 241.069 996.08 255.817 984.682C277.601 967.845 215.532 972 218.493 981.567C223.733 998.499 229.577 1006.33 237.844 1010.19Z" fill="#5CE6BA"/>
</g>
</g>
<rect x="339.057" y="938.27" width="85.7869" height="85.7869" rx="37.5" fill="#9DFFC3" stroke="#5CE6BA" stroke-width="15"/>
<defs>
<filter id="filter0_i_118_1384" x="418" y="613" width="105" height="122" filterUnits="userSpaceOnUse" color-interpolation-filters="sRGB">
<feFlood flood-opacity="0" result="BackgroundImageFix"/>
<feBlend mode="normal" in="SourceGraphic" in2="BackgroundImageFix" result="shape"/>
<feColorMatrix in="SourceAlpha" type="matrix" values="0 0 0 0 0 0 0 0 0 0 0 0 0 0 0 0 0 0 127 0" result="hardAlpha"/>
<feMorphology radius="10" operator="erode" in="SourceAlpha" result="effect1_innerShadow_118_1384"/>
<feOffset dy="8"/>
<feGaussianBlur stdDeviation="45"/>
<feComposite in2="hardAlpha" operator="arithmetic" k2="-1" k3="1"/>
<feColorMatrix type="matrix" values="0 0 0 0 0 0 0 0 0 0 0 0 0 0 0 0 0 0 1 0"/>
<feBlend mode="normal" in2="shape" result="effect1_innerShadow_118_1384"/>
</filter>
<filter id="filter1_i_118_1384" x="224" y="616" width="105" height="122" filterUnits="userSpaceOnUse" color-interpolation-filters="sRGB">
<feFlood flood-opacity="0" result="BackgroundImageFix"/>
<feBlend mode="normal" in="SourceGraphic" in2="BackgroundImageFix" result="shape"/>
<feColorMatrix in="SourceAlpha" type="matrix" values="0 0 0 0 0 0 0 0 0 0 0 0 0 0 0 0 0 0 127 0" result="hardAlpha"/>
<feMorphology radius="10" operator="erode" in="SourceAlpha" result="effect1_innerShadow_118_1384"/>
<feOffset dy="8"/>
<feGaussianBlur stdDeviation="45"/>
<feComposite in2="hardAlpha" operator="arithmetic" k2="-1" k3="1"/>
<feColorMatrix type="matrix" values="0 0 0 0 0 0 0 0 0 0 0 0 0 0 0 0 0 0 1 0"/>
<feBlend mode="normal" in2="shape" result="effect1_innerShadow_118_1384"/>
</filter>
</defs>
</svg>
