<svg width="737" height="626" viewBox="0 0 737 626" fill="none" xmlns="http://www.w3.org/2000/svg">
<path fill-rule="evenodd" clip-rule="evenodd" d="M238.06 214.771C298.541 206.639 360.939 226.896 394.482 252.909L396.304 254.337C434.154 284.318 445.203 313.159 440.912 332.066C438.712 341.756 432.387 348.749 423.822 350.921C415.582 353.011 406.168 350.421 397.6 343.12L396.774 342.399C380.825 328.149 363.755 312.702 345.663 300.473C327.849 288.432 309.415 279.777 290.549 278.379L289.651 278.319C239.385 275.213 203.96 292.307 181.482 319.28C158.892 346.388 149.016 383.922 150.914 422.167C154.724 498.95 205.531 575.93 291.485 575.93C372.114 575.93 407.714 511.179 408.736 466.989C408.99 455.988 407.075 446.634 403.475 440.042C399.937 433.563 394.903 429.904 388.526 429.43C381.904 428.938 372.956 431.805 361.688 440.484C350.824 448.851 338.176 462.343 323.925 482.37L322.542 484.329C304.864 509.516 276.719 513.932 256.638 507.875C246.665 504.867 238.098 499.098 233.993 491.349C231.907 487.413 231.003 482.996 231.714 478.367C232.42 473.761 234.68 469.217 238.471 464.898L239.919 463.258C270.374 428.985 304.323 404.083 336.705 389.323C369.515 374.367 401.124 369.654 425.904 376.72C451.051 383.891 468.575 403.046 472.893 434.111C476.938 463.209 469.417 502.645 446.447 552.809C450.431 551.557 455.562 550.138 461.718 548.99C474.937 546.524 492.831 545.306 514.255 549.547L515.492 549.798C541.278 555.186 555.538 567.177 561.644 581.548C567.758 595.937 565.275 611.748 559.702 623.692L558.625 626H197.376L197.116 625.773H104.392L101.801 625.119L107.065 604.273L102.457 622.512C101.815 625.049 101.795 625.115 101.793 625.117C101.793 625.117 101.786 625.114 101.783 625.114C101.776 625.112 101.768 625.11 101.759 625.108C101.742 625.103 101.72 625.098 101.695 625.091C101.644 625.078 101.577 625.061 101.497 625.04C101.335 624.998 101.112 624.94 100.835 624.867C100.28 624.719 99.4986 624.508 98.5211 624.235C96.5675 623.688 93.8139 622.886 90.483 621.835C83.8539 619.745 74.7712 616.616 65.0729 612.473C55.4538 608.364 44.7202 603.044 35.0387 596.444C25.9033 590.216 16.2091 581.847 9.93421 570.911L9.33753 569.845C-9.00321 536.191 -0.0387764 495.541 33.7047 479.431C53.186 470.13 76.0635 471.26 99.6442 482.389C82.076 428.35 83.6377 379.078 92.6403 348.09L93.2448 346.039C106.062 303.184 126.874 272.489 152.116 251.449C177.743 230.087 207.726 218.849 238.06 214.771ZM112.347 583.432C112.347 583.432 112.343 583.431 112.34 583.43L112.336 583.429L112.347 583.432ZM117.804 549.618C83.4902 512.844 60.1318 514.463 52.2301 518.236C44.962 521.706 38.1833 532.916 47.0953 549.269L47.2506 549.546C48.9253 552.447 52.6509 556.408 59.2604 560.914C65.8323 565.395 73.8324 569.456 81.9655 572.93C90.0192 576.37 97.7104 579.027 103.416 580.827C106.137 581.685 108.369 582.335 109.925 582.773H149.874C142.087 575.084 132.485 565.278 120.577 552.581L117.804 549.618Z" fill="white"/>
<path fill-rule="evenodd" clip-rule="evenodd" d="M321.12 7.61753C342.838 -16.0933 405.31 18.9032 457.12 66.3568C489.788 96.2779 532.695 150.803 554.498 192.952C581.804 184.707 612.802 184.849 642.977 195.291C713.406 219.664 752.679 290.917 730.696 354.441C708.713 417.964 633.799 449.703 563.371 425.33C492.942 400.958 453.669 329.705 475.652 266.181C479.464 255.164 484.87 245.103 491.567 236.125C447.499 217.395 395.217 185.369 366.1 158.7C314.29 111.246 293.735 37.5164 321.12 7.61753ZM624.565 249.397C587.126 236.441 547.323 253.253 535.663 286.948C524.002 320.643 544.9 358.461 582.339 371.417C619.778 384.373 659.581 367.561 671.242 333.866C682.902 300.171 662.004 262.353 624.565 249.397Z" fill="white"/>
</svg>
